HIERARCHY
ROOT Hips
{
	OFFSET 0.000000 35.082581 0.000000
	CHANNELS 6 Xposition Yposition Zposition Xrotation Yrotation Zrotation 
	JOINT Spine
	{
		OFFSET 0.000000 6.876099 0.125700
		CHANNELS 3 Xrotation Yrotation Zrotation
		JOINT Spine1
		{
			OFFSET 0.000000 5.730043 0.104720
			CHANNELS 3 Xrotation Yrotation Zrotation
			JOINT Spine1_split
			{
				OFFSET 0.000000 5.730043 0.104720
				CHANNELS 3 Xrotation Yrotation Zrotation
				JOINT Spine2
				{
					OFFSET 0.000000 5.730043 0.104720
					CHANNELS 3 Xrotation Yrotation Zrotation
					JOINT Neck
					{
						OFFSET 0.000000 10.314075 0.188496
						CHANNELS 3 Xrotation Yrotation Zrotation
						JOINT Head
						{
							OFFSET 0.000000 7.643700 -2.377400
							CHANNELS 3 Xrotation Yrotation Zrotation
							JOINT HeadTop_End
							{
								OFFSET 0.000000 43.788605 -13.619600
								CHANNELS 3 Xrotation Yrotation Zrotation
								End Site
								{
									OFFSET 0.000000 0.000000 0.000000
								}
							}
						}
					}
					JOINT LeftShoulder
					{
						OFFSET 2.196100 4.412489 0.087492
						CHANNELS 3 Xrotation Yrotation Zrotation
						JOINT LeftShoulder_split
						{
							OFFSET 2.196100 4.412489 0.087492
							CHANNELS 3 Xrotation Yrotation Zrotation
							JOINT LeftArm
							{
								OFFSET 8.771219 -2.981674 -0.026999
								CHANNELS 3 Xrotation Yrotation Zrotation
								JOINT LeftForeArm
								{
									OFFSET 8.512804 0.000000 -0.000000
									CHANNELS 3 Xrotation Yrotation Zrotation
									JOINT LeftHand
									{
										OFFSET 18.484802 0.000000 -0.000000
										CHANNELS 3 Xrotation Yrotation Zrotation
										JOINT LeftHandThumb1
										{
											OFFSET 2.499420 -1.158070 2.653252
											CHANNELS 3 Xrotation Yrotation Zrotation
											JOINT LeftHandThumb2
											{
												OFFSET 2.370079 -1.368366 1.368366
												CHANNELS 3 Xrotation Yrotation Zrotation
												JOINT LeftHandThumb3
												{
													OFFSET 2.676727 -1.545410 1.545409
													CHANNELS 3 Xrotation Yrotation Zrotation
													JOINT LeftHandThumb4
													{
														OFFSET 1.692226 -0.977005 0.977007
														CHANNELS 3 Xrotation Yrotation Zrotation
														End Site
														{
															OFFSET 0.000000 0.000000 0.000000
														}
													}
												}
											}
										}
										JOINT LeftHandIndex1
										{
											OFFSET 7.924831 -0.457527 2.345128
											CHANNELS 3 Xrotation Yrotation Zrotation
											JOINT LeftHandIndex2
											{
												OFFSET 3.643303 0.000000 0.000000
												CHANNELS 3 Xrotation Yrotation Zrotation
												JOINT LeftHandIndex3
												{
													OFFSET 3.810799 0.000000 0.000000
													CHANNELS 3 Xrotation Yrotation Zrotation
													JOINT LeftHandIndex4
													{
														OFFSET 2.403702 0.000000 0.000000
														CHANNELS 3 Xrotation Yrotation Zrotation
														End Site
														{
															OFFSET 0.000000 0.000000 0.000000
														}
													}
												}
											}
										}
										JOINT LeftHandMiddle1
										{
											OFFSET 8.563995 0.000000 -0.000000
											CHANNELS 3 Xrotation Yrotation Zrotation
											JOINT LeftHandMiddle2
											{
												OFFSET 3.861618 0.000000 0.000000
												CHANNELS 3 Xrotation Yrotation Zrotation
												JOINT LeftHandMiddle3
												{
													OFFSET 3.701603 0.000000 0.000000
													CHANNELS 3 Xrotation Yrotation Zrotation
													JOINT LeftHandMiddle4
													{
														OFFSET 2.322544 0.000000 0.000000
														CHANNELS 3 Xrotation Yrotation Zrotation
														End Site
														{
															OFFSET 0.000000 0.000000 0.000000
														}
													}
												}
											}
										}
										JOINT LeftHandRing1
										{
											OFFSET 8.426460 -0.424637 -3.286992
											CHANNELS 3 Xrotation Yrotation Zrotation
											JOINT LeftHandRing2
											{
												OFFSET 3.126408 0.000000 0.000000
												CHANNELS 3 Xrotation Yrotation Zrotation
												JOINT LeftHandRing3
												{
													OFFSET 3.085026 0.000000 0.000000
													CHANNELS 3 Xrotation Yrotation Zrotation
													JOINT LeftHandRing4
													{
														OFFSET 1.644005 0.000000 0.000000
														CHANNELS 3 Xrotation Yrotation Zrotation
														End Site
														{
															OFFSET 0.000000 0.000000 0.000000
														}
													}
												}
											}
										}
									}
								}
							}
						}
					}
					JOINT RightShoulder
					{
						OFFSET -2.196100 4.412496 0.070690
						CHANNELS 3 Xrotation Yrotation Zrotation
						JOINT RightShoulder_split
						{
							OFFSET -2.196100 4.412496 0.070690
							CHANNELS 3 Xrotation Yrotation Zrotation
							JOINT RightArm
							{
								OFFSET -8.771282 -2.981682 -0.094208
								CHANNELS 3 Xrotation Yrotation Zrotation
								JOINT RightForeArm
								{
									OFFSET -8.494598 0.000000 0.000000
									CHANNELS 3 Xrotation Yrotation Zrotation
									JOINT RightHand
									{
										OFFSET -18.483803 0.000000 0.000001
										CHANNELS 3 Xrotation Yrotation Zrotation
										JOINT RightHandThumb1
										{
											OFFSET -2.527351 -1.008072 2.575253
											CHANNELS 3 Xrotation Yrotation Zrotation
											JOINT RightHandThumb2
											{
												OFFSET -2.321518 -1.340328 1.340329
												CHANNELS 3 Xrotation Yrotation Zrotation
												JOINT RightHandThumb3
												{
													OFFSET -2.657753 -1.534454 1.534455
													CHANNELS 3 Xrotation Yrotation Zrotation
													JOINT RightHandThumb4
													{
														OFFSET -1.807510 -1.043568 1.043567
														CHANNELS 3 Xrotation Yrotation Zrotation
														End Site
														{
															OFFSET 0.000000 0.000000 0.000000
														}
													}
												}
											}
										}
										JOINT RightHandIndex1
										{
											OFFSET -8.811420 0.015533 2.887987
											CHANNELS 3 Xrotation Yrotation Zrotation
											JOINT RightHandIndex2
											{
												OFFSET -3.537502 0.000000 0.000000
												CHANNELS 3 Xrotation Yrotation Zrotation
												JOINT RightHandIndex3
												{
													OFFSET -3.356201 0.000000 0.000000
													CHANNELS 3 Xrotation Yrotation Zrotation
													JOINT RightHandIndex4
													{
														OFFSET -1.933098 0.000000 0.000000
														CHANNELS 3 Xrotation Yrotation Zrotation
														End Site
														{
															OFFSET 0.000000 0.000000 0.000000
														}
													}
												}
											}
										}
										JOINT RightHandMiddle1
										{
											OFFSET -8.178135 0.000000 0.000000
											CHANNELS 3 Xrotation Yrotation Zrotation
											JOINT RightHandMiddle2
											{
												OFFSET -3.901302 0.000000 0.000000
												CHANNELS 3 Xrotation Yrotation Zrotation
												JOINT RightHandMiddle3
												{
													OFFSET -3.909599 0.000000 0.000000
													CHANNELS 3 Xrotation Yrotation Zrotation
													JOINT RightHandMiddle4
													{
														OFFSET -2.376003 0.000000 0.000000
														CHANNELS 3 Xrotation Yrotation Zrotation
														End Site
														{
															OFFSET 0.000000 0.000000 0.000000
														}
													}
												}
											}
										}
										JOINT RightHandRing1
										{
											OFFSET -7.559013 0.014137 -2.865403
											CHANNELS 3 Xrotation Yrotation Zrotation
											JOINT RightHandRing2
											{
												OFFSET -3.449306 0.000000 0.000000
												CHANNELS 3 Xrotation Yrotation Zrotation
												JOINT RightHandRing3
												{
													OFFSET -3.362106 0.000000 0.000000
													CHANNELS 3 Xrotation Yrotation Zrotation
													JOINT RightHandRing4
													{
														OFFSET -2.076401 0.000000 0.000000
														CHANNELS 3 Xrotation Yrotation Zrotation
														End Site
														{
															OFFSET 0.000000 0.000000 0.000000
														}
													}
												}
											}
										}
									}
								}
							}
						}
					}
				}
			}
		}
	}
	JOINT LeftUpLeg
	{
		OFFSET 10.205400 -3.823500 0.155100
		CHANNELS 3 Xrotation Yrotation Zrotation
		JOINT LeftLeg
		{
			OFFSET 0.708757 -12.982077 0.567790
			CHANNELS 3 Xrotation Yrotation Zrotation
			JOINT LeftFoot
			{
				OFFSET -0.708756 -10.717838 -2.184338
				CHANNELS 3 Xrotation Yrotation Zrotation
				JOINT LeftToeBase
				{
					OFFSET 0.108149 -7.191104 7.560241
					CHANNELS 3 Xrotation Yrotation Zrotation
					JOINT LeftToe_End
					{
						OFFSET 0.070230 0.081724 4.490308
						CHANNELS 3 Xrotation Yrotation Zrotation
						End Site
						{
							OFFSET 0.000000 0.000000 0.000000
						}
					}
				}
			}
		}
	}
	JOINT RightUpLeg
	{
		OFFSET -10.205400 -3.823500 0.005500
		CHANNELS 3 Xrotation Yrotation Zrotation
		JOINT RightLeg
		{
			OFFSET -0.708756 -12.982134 0.610632
			CHANNELS 3 Xrotation Yrotation Zrotation
			JOINT RightFoot
			{
				OFFSET 0.708754 -10.717769 -1.945823
				CHANNELS 3 Xrotation Yrotation Zrotation
				JOINT RightToeBase
				{
					OFFSET -0.108140 -7.191069 7.372968
					CHANNELS 3 Xrotation Yrotation Zrotation
					JOINT RightToe_End
					{
						OFFSET -0.070227 0.081735 4.479403
						CHANNELS 3 Xrotation Yrotation Zrotation
						End Site
						{
							OFFSET 0.000000 0.000000 0.000000
						}
					}
				}
			}
		}
	}
}
MOTION
Frames: 4
Frame Time: 0.016667
-0.269107 28.599277 -0.034282 3.000804 -58.172188 6.374286 11.189897 0.063095 -2.592032 8.434589 0.027663 -5.592314 0.000000 0.000000 0.000000 8.457028 0.027906 -5.591871 -21.556282 25.063278 12.062620 -0.293597 25.465682 -3.208708 -0.000000 0.000000 -0.000000 -6.221642 -11.503840 -4.023759 0.000000 0.000000 0.000000 -23.061632 9.569254 -36.639819 0.046348 -43.170935 -0.010993 22.743637 -5.684997 15.979064 -1.064232 -7.954955 8.490061 2.373370 19.986163 -2.038301 0.808202 1.237758 2.631733 0.000001 -0.000002 0.000001 13.340869 -1.006678 10.682262 -0.167578 0.303398 -31.105634 -0.143380 0.303635 -32.256238 0.000000 0.000001 0.000001 8.495453 -0.329581 -0.915309 0.231488 0.661227 -29.901865 0.444111 0.213459 -44.357004 0.000000 -0.000001 0.000000 6.111738 3.150936 -16.210926 0.047075 0.322433 -30.125495 0.408793 0.818958 -42.140659 0.000000 -0.000000 -0.000002 -5.488215 10.658255 2.466428 0.000000 0.000000 0.000000 -41.473906 -26.755586 30.079064 24.955729 111.862905 -23.308789 -8.702481 12.423098 -9.801923 0.264995 10.061096 -10.888513 1.383780 -17.412867 3.016266 3.342386 -13.253746 -8.262774 0.000003 -0.000003 0.000002 19.443602 11.174438 -13.340189 -0.118679 -0.322701 18.035613 -0.089893 -0.286607 23.256596 -0.000002 -0.000000 0.000000 4.320458 2.436953 -4.811744 0.349128 -0.461222 26.890328 0.467502 0.154053 39.044872 -0.000000 -0.000000 0.000001 -7.005634 -10.695162 5.719819 0.111908 -0.089182 26.155885 0.451284 -0.473588 33.265074 0.000003 -0.000000 -0.000000 -37.006989 4.719537 33.439530 48.223577 -12.858554 -11.597216 -12.623665 -0.319658 -14.395693 -0.327594 1.238384 0.837236 0.000000 0.000002 0.000000 -31.642409 -2.223685 -36.223140 60.430911 9.462745 -7.242570 -30.089312 -4.049436 28.252384 -0.322764 -0.997406 -0.837221 0.000000 0.000003 -0.000000 
-0.389973 28.623680 -0.002697 4.756778 -58.792110 8.508536 10.570677 0.043097 -2.875093 7.278659 0.995591 -6.029102 0.000000 0.000000 0.000000 7.868302 0.668171 -5.886733 -19.835341 24.498191 8.157676 -2.779486 23.606790 2.798133 0.000001 0.000000 0.000000 -6.438889 -13.164606 -4.289220 0.000000 0.000000 0.000000 -20.844402 7.515343 -36.011356 -0.375292 -40.249055 -0.284903 20.711483 -9.083179 15.351144 -1.038651 -7.822567 8.542156 2.457025 20.247041 -1.940294 0.878726 1.498670 2.761549 -0.000001 0.000001 -0.000002 13.341811 -1.007625 10.381779 -0.167202 0.303662 -31.406234 -0.142191 0.303238 -32.556868 -0.000001 -0.000000 0.000001 8.490659 -0.326624 -1.215852 0.233149 0.662208 -30.202461 0.445764 0.213985 -44.657614 -0.000001 0.000000 -0.000002 6.108699 3.154440 -16.511139 0.047234 0.324461 -30.426099 0.411739 0.818639 -42.441218 -0.000002 0.000001 -0.000000 -5.541674 9.386657 2.275634 0.000000 0.000000 0.000000 -42.475526 -27.794002 27.164183 22.803319 114.466259 -20.890135 -4.795830 10.170853 -11.609652 0.377258 9.088738 -11.243417 1.701226 -18.294563 2.663690 3.474372 -14.181414 -8.671795 0.000003 -0.000000 0.000001 19.445011 11.175372 -12.309060 -0.117734 -0.323584 19.070484 -0.086065 -0.286052 24.291435 0.000001 -0.000000 0.000002 4.313790 2.427138 -3.776348 0.354739 -0.465017 27.925138 0.473442 0.151415 40.079608 -0.000000 0.000001 -0.000000 -6.995281 -10.694685 6.754741 0.111827 -0.096146 27.190715 0.461585 -0.474443 34.299912 0.000005 -0.000000 -0.000000 -36.451873 5.325082 32.748858 47.459809 -11.999529 -11.369162 -12.936353 -0.037919 -14.940603 -0.346649 1.238195 0.866897 -0.000000 0.000006 0.000000 -32.925548 -1.064579 -36.511036 61.003534 9.548079 -7.257040 -30.187305 -3.980490 28.264953 -0.716182 -0.900181 -0.703448 0.000000 0.000001 -0.000000 
-0.608685 28.694996 0.060423 6.502107 -60.039781 10.558473 9.968892 0.033467 -3.147561 5.412857 1.778458 -6.941526 0.000000 0.000000 0.000000 6.233829 0.975660 -6.719545 -17.015545 23.940348 3.257989 -3.784289 21.629768 8.240863 0.000000 0.000000 -0.000001 -6.702477 -14.957889 -4.571845 0.000000 0.000000 0.000000 -18.021917 7.338822 -35.052558 -0.477849 -38.363311 -0.338764 19.213302 -11.154227 13.927265 -0.979520 -7.455862 8.678429 2.699613 20.954266 -1.668320 1.051481 2.224715 3.105784 -0.000003 0.000002 0.000003 13.344379 -1.010296 9.557763 -0.166132 0.304223 -32.230450 -0.138966 0.306121 -33.381115 0.000002 0.000001 -0.000000 8.482572 -0.318388 -2.040058 0.237658 0.664840 -31.026701 0.450414 0.212340 -45.481851 -0.000001 -0.000000 -0.000001 6.100509 3.164023 -17.334392 0.047625 0.330015 -31.250294 0.419848 0.820350 -43.265505 0.000001 0.000000 0.000002 -5.596356 8.117651 2.079250 0.000000 0.000000 0.000000 -42.075362 -29.071150 25.529905 21.515755 116.635712 -19.361500 -0.202627 8.375948 -12.996902 0.500858 7.974841 -11.648252 2.059887 -19.306433 2.263689 3.617947 -15.244883 -9.140291 0.000006 0.000000 -0.000000 19.446616 11.176471 -11.126329 -0.116624 -0.324519 20.255863 -0.081674 -0.285353 25.476845 0.000000 0.000002 0.000001 4.304644 2.415562 -2.590500 0.361309 -0.469201 29.110536 0.480321 0.148507 41.264895 -0.000000 -0.000000 0.000001 -6.989922 -10.702562 7.938612 0.111975 -0.104120 28.376029 0.464994 -0.475109 35.485312 0.000004 0.000003 -0.000001 -34.793421 6.051394 32.243298 46.487026 -10.852933 -11.016126 -13.824060 0.631197 -15.930047 -0.366966 1.237909 0.841862 0.000000 -0.000003 -0.000000 -34.070315 0.258549 -36.347623 61.176488 9.615410 -7.227278 -30.051285 -3.618860 28.166517 -1.699925 -0.657388 -0.366461 0.000000 -0.000003 0.000000 
-0.902362 28.801342 0.139557 7.671173 -61.282568 11.916870 9.399546 0.020770 -3.400938 3.106748 1.642275 -8.093143 0.000000 0.000000 0.000000 4.027164 1.010945 -7.900991 -14.200324 23.558210 -1.824855 -3.513576 20.287858 10.479020 0.000001 0.000001 -0.000000 -6.970885 -16.475499 -4.859245 0.000000 0.000000 0.000000 -16.573509 10.147439 -34.139471 -0.206031 -37.784692 -0.168378 18.782571 -9.426721 9.926450 -0.892375 -6.907672 8.881321 3.057547 22.012762 -1.265164 1.301764 3.311239 3.616901 -0.000003 0.000001 0.000002 13.348081 -1.014332 8.326589 -0.164578 0.305132 -33.462005 -0.134125 0.310381 -34.612605 0.000000 0.000001 0.000000 8.470784 -0.305797 -3.271511 0.244494 0.668665 -32.258277 0.457299 0.212223 -46.713351 -0.000002 -0.000000 -0.000001 6.099446 3.178701 -18.565236 0.052118 0.338266 -32.481788 0.431911 0.825451 -44.497111 0.000001 -0.000000 0.000001 -5.673086 6.670770 1.984838 0.000000 0.000000 0.000000 -39.956532 -30.758497 25.815269 19.616172 120.069617 -17.091324 4.611835 6.349244 -13.813235 0.623005 6.825578 -12.064225 2.424506 -20.352721 1.854931 3.757520 -16.342916 -9.623863 -0.000003 0.000000 0.000006 19.448253 11.177678 -9.904337 -0.115477 -0.325452 21.478845 -0.077153 -0.284797 26.699887 0.000000 -0.000004 -0.000001 4.293694 2.403196 -1.366997 0.368100 -0.473359 30.333543 0.487476 0.145682 42.487813 -0.000000 -0.000000 -0.000001 -6.994977 -10.712249 9.159855 0.112256 -0.112069 29.599014 0.469056 -0.475603 36.708339 -0.000002 -0.000002 0.000001 -32.612862 6.873523 31.958486 45.238286 -9.965064 -10.619133 -14.714225 1.413781 -16.967307 -0.374487 1.237844 0.838014 -0.000000 -0.000002 0.000000 -34.255004 1.297039 -35.842323 60.852368 9.329529 -7.142463 -30.015796 -3.248347 28.161611 -2.979359 -0.341914 0.076922 0.000000 -0.000001 0.000000 
